HIERARCHY
ROOT Hips
{
	OFFSET -0.001795 -0.223333 0.028219
	CHANNELS 6 Xposition Yposition Zposition Zrotation Yrotation Xrotation 
	JOINT LeftUpLeg
	{
		OFFSET 0.069520 -0.091406 -0.006815
		CHANNELS 3 Zrotation Yrotation Xrotation
		JOINT LeftLeg
		{
			OFFSET 0.034277 -0.375199 -0.004496
			CHANNELS 3 Zrotation Yrotation Xrotation
			JOINT LeftFoot
			{
				OFFSET -0.013596 -0.397961 -0.043693
				CHANNELS 3 Zrotation Yrotation Xrotation
				JOINT LeftToe
				{
					OFFSET 0.026358 -0.055791 0.119288
					CHANNELS 3 Zrotation Yrotation Xrotation
					End Site
					{
						OFFSET 0.000000 0.000000 0.000000
					}
				}
			}
		}
	}
	JOINT RightUpLeg
	{
		OFFSET -0.067670 -0.090522 -0.004320
		CHANNELS 3 Zrotation Yrotation Xrotation
		JOINT RightLeg
		{
			OFFSET -0.038290 -0.382569 -0.008850
			CHANNELS 3 Zrotation Yrotation Xrotation
			JOINT RightFoot
			{
				OFFSET 0.015774 -0.398415 -0.042312
				CHANNELS 3 Zrotation Yrotation Xrotation
				JOINT RightToe
				{
					OFFSET -0.025372 -0.048144 0.123348
					CHANNELS 3 Zrotation Yrotation Xrotation
					End Site
					{
						OFFSET 0.000000 0.000000 0.000000
					}
				}
			}
		}
	}
	JOINT Spine
	{
		OFFSET -0.002533 0.108963 -0.026696
		CHANNELS 3 Zrotation Yrotation Xrotation
		JOINT Spine1
		{
			OFFSET 0.005487 0.135180 0.001092
			CHANNELS 3 Zrotation Yrotation Xrotation
			JOINT Spine2
			{
				OFFSET 0.001457 0.052922 0.025425
				CHANNELS 3 Zrotation Yrotation Xrotation
				JOINT Neck
				{
					OFFSET -0.002778 0.213870 -0.042857
					CHANNELS 3 Zrotation Yrotation Xrotation
					JOINT Head
					{
						OFFSET 0.005152 0.064970 0.051349
						CHANNELS 3 Zrotation Yrotation Xrotation
						End Site
						{
							OFFSET 0.000000 0.000000 0.000000
						}
					}
				}
				JOINT LeftShoulder
				{
					OFFSET 0.078845 0.121749 -0.034090
					CHANNELS 3 Zrotation Yrotation Xrotation
					JOINT LeftArm
					{
						OFFSET 0.090977 0.030469 -0.008868
						CHANNELS 3 Zrotation Yrotation Xrotation
						JOINT LeftForeArm
						{
							OFFSET 0.259612 -0.012772 -0.027456
							CHANNELS 3 Zrotation Yrotation Xrotation
							JOINT LeftHand
							{
								OFFSET 0.249234 0.008986 -0.001171
								CHANNELS 3 Zrotation Yrotation Xrotation
								End Site
								{
									OFFSET 0.000000 0.000000 0.000000
								}
							}
						}
					}
				}
				JOINT RightShoulder
				{
					OFFSET -0.081759 0.118833 -0.038615
					CHANNELS 3 Zrotation Yrotation Xrotation
					JOINT RightArm
					{
						OFFSET -0.096012 0.032551 -0.009143
						CHANNELS 3 Zrotation Yrotation Xrotation
						JOINT RightForeArm
						{
							OFFSET -0.253742 -0.013329 -0.021401
							CHANNELS 3 Zrotation Yrotation Xrotation
							JOINT RightHand
							{
								OFFSET -0.255298 0.007772 -0.005559
								CHANNELS 3 Zrotation Yrotation Xrotation
								End Site
								{
									OFFSET 0.000000 0.000000 0.000000
								}
							}
						}
					}
				}
			}
		}
	}
}
MOTION
Frames: 16
Frame Time: 0.050000
0.000000 0.947797 0.000000 -1.395852 1.071590 5.347686 4.726053 -0.237545 -2.174738 1.993743 0.008853 -4.272485 1.150749 6.590767 11.915926 0.000000 0.000000 0.000000 -3.352053 0.476542 -5.069493 -3.062746 0.253603 -1.058159 -1.573762 -8.556676 15.077177 0.000000 0.000000 0.000000 2.385755 0.078904 -2.339662 -0.078182 0.080102 -1.503190 -0.725445 0.678227 1.272449 2.613525 -0.852958 -10.323346 0.000000 0.000000 0.000000 -18.995976 -2.968230 -0.712013 -51.517338 -7.603576 -2.498281 -13.328725 -19.369979 2.903025 0.000000 0.000000 0.000000 18.347773 2.440683 -0.168966 54.142112 8.948926 -0.941011 10.708739 18.871820 2.209725 0.000000 0.000000 0.000000 
0.000171 0.946601 0.001038 -1.517848 -0.079655 5.853906 4.004422 -0.220856 -2.046350 3.295444 -0.042941 -4.936105 1.789103 7.499968 11.933532 0.000000 0.000000 0.000000 -3.546650 0.511409 -5.437486 -2.684609 0.173755 -1.648510 -1.055777 -7.739794 14.768106 0.000000 0.000000 0.000000 2.754705 0.114193 -2.956131 -1.162007 0.574818 -1.888217 0.121137 0.930579 1.093018 2.298036 -0.672516 -10.443462 0.000000 0.000000 0.000000 -19.405706 -2.003465 -1.124824 -52.040292 -7.551730 -2.551591 -13.087960 -18.819232 2.798846 0.000000 0.000000 0.000000 17.355472 1.919975 -0.528785 55.719011 8.605498 -1.047260 10.883759 19.021746 2.233838 0.000000 0.000000 0.000000 
0.000211 0.946558 0.002114 -1.212045 0.709908 5.785560 3.911900 -0.224395 -2.045708 2.998067 -0.019339 -4.964185 1.371752 6.890308 11.852553 0.000000 0.000000 0.000000 -3.845499 0.500446 -5.416049 -2.640563 0.205205 -1.146888 -1.495355 -8.367590 14.630741 0.000000 0.000000 0.000000 2.456559 0.101267 -2.757204 -0.491283 0.320353 -3.758096 -0.651048 0.676952 2.027461 2.444743 -0.879325 -9.262650 0.000000 0.000000 0.000000 -18.941481 -2.437241 -0.907546 -52.098229 -7.158655 -2.799251 -13.584714 -17.607291 2.683250 0.000000 0.000000 0.000000 18.942777 2.460724 -0.227382 54.436619 8.195603 -1.349560 10.291023 19.230392 2.192518 0.000000 0.000000 0.000000 
0.000161 0.946148 0.003499 -1.431199 0.453559 6.166412 3.994219 -0.241492 -2.298608 3.247770 -0.033565 -4.995528 1.565384 7.147603 11.754021 0.000000 0.000000 0.000000 -3.668006 0.552874 -6.074093 -2.566084 0.227575 -0.647066 -1.429707 -8.242261 14.435468 0.000000 0.000000 0.000000 2.436043 0.147104 -3.533438 -1.018448 0.536176 -3.264327 0.642923 -0.305591 1.020202 1.475067 -0.434396 -7.867618 0.000000 0.000000 0.000000 -19.034358 -1.091437 -1.309300 -52.733085 -7.104067 -2.820770 -13.300886 -16.659232 2.529280 0.000000 0.000000 0.000000 17.611941 2.641618 -0.426822 55.165873 7.737741 -1.400084 10.927072 18.923943 2.188322 0.000000 0.000000 0.000000 
0.000001 0.946363 0.005002 -1.213785 1.165907 6.054411 3.901242 -0.233257 -2.105077 3.134694 -0.011309 -5.201269 1.163721 6.587785 11.797547 0.000000 0.000000 0.000000 -3.976024 0.507435 -5.554728 -2.307764 0.188264 -0.931133 -1.756277 -8.739392 14.532367 0.000000 0.000000 0.000000 2.089937 0.169601 -3.954834 -0.569394 0.347514 -3.296058 0.427726 -0.763630 0.938409 1.111803 -0.238737 -7.242117 0.000000 0.000000 0.000000 -19.239329 -0.768534 -1.500396 -52.486548 -7.044137 -2.832991 -13.804810 -15.909656 2.481300 0.000000 0.000000 0.000000 17.537661 2.077573 -0.722348 55.113238 7.464443 -1.520870 11.218200 19.041114 2.245413 0.000000 0.000000 0.000000 
-0.000073 0.946383 0.006249 -1.221686 1.220724 6.239282 3.860912 -0.242905 -2.246810 3.243595 -0.018473 -5.182863 1.149871 6.572101 11.801098 0.000000 0.000000 0.000000 -4.052227 0.520232 -5.746958 -2.138095 0.180233 -0.786582 -1.800658 -8.803242 14.504733 0.000000 0.000000 0.000000 1.848145 0.193302 -4.422380 -0.581148 0.348937 -3.137857 0.889717 -0.942042 0.577753 0.940331 -0.176790 -6.668632 0.000000 0.000000 0.000000 -19.485528 -0.178934 -1.790585 -52.482601 -6.805730 -2.912932 -13.627874 -15.797614 2.442976 0.000000 0.000000 0.000000 17.028063 2.057082 -0.757488 55.464915 7.276145 -1.574755 11.194282 18.871626 2.207412 0.000000 0.000000 0.000000 
-0.000122 0.946176 0.006911 -1.124526 1.650447 6.304132 3.839878 -0.252966 -2.371883 3.180427 -0.014521 -5.157938 0.948238 6.265391 11.704169 0.000000 0.000000 0.000000 -4.204418 0.503123 -5.556295 -1.984296 0.153250 -1.020800 -2.012072 -9.116520 14.512082 0.000000 0.000000 0.000000 1.689576 0.197679 -4.573480 -0.367558 0.258888 -3.125718 0.660655 -1.332649 0.338648 1.029378 -0.195243 -7.238829 0.000000 0.000000 0.000000 -19.295266 0.142859 -1.925250 -52.369543 -6.356532 -3.082272 -14.197649 -16.134659 2.580368 0.000000 0.000000 0.000000 17.045090 2.046978 -0.796664 55.473371 6.790841 -1.770073 11.395927 19.043087 2.252770 0.000000 0.000000 0.000000 
-0.000138 0.945943 0.007018 -1.174565 1.630841 6.513197 3.686329 -0.271427 -2.689857 3.554026 -0.048033 -4.979368 1.004597 6.330517 11.617814 0.000000 0.000000 0.000000 -4.307088 0.511602 -5.677940 -1.712447 0.116298 -1.210511 -2.004440 -9.104841 14.514098 0.000000 0.000000 0.000000 1.648756 0.203836 -4.716364 -0.467973 0.305953 -3.260585 0.845222 -1.259463 0.284479 1.013095 -0.209297 -6.913251 0.000000 0.000000 0.000000 -19.531332 0.238789 -2.007256 -52.217656 -6.143086 -3.159669 -14.280723 -16.221748 2.606137 0.000000 0.000000 0.000000 17.305507 2.130562 -0.775671 55.277038 6.542817 -1.870110 11.487669 18.578215 2.203988 0.000000 0.000000 0.000000 
-0.000178 0.945609 0.006950 -1.227896 1.757696 6.659268 3.737011 -0.285823 -2.897076 3.602547 -0.052390 -4.946162 0.978553 6.268180 11.503440 0.000000 0.000000 0.000000 -4.284174 0.515292 -5.724464 -1.631072 0.099720 -1.381177 -2.070980 -9.203203 14.504748 0.000000 0.000000 0.000000 1.533412 0.208854 -4.860014 -0.328182 0.242929 -3.152631 0.795179 -1.225513 0.013979 1.008480 -0.211984 -6.744636 0.000000 0.000000 0.000000 -19.344963 0.073702 -1.935795 -52.233995 -6.260295 -3.077061 -14.501935 -16.168758 2.622931 0.000000 0.000000 0.000000 17.586056 2.296165 -0.696063 54.987327 6.273473 -1.956597 11.424706 18.442586 2.178588 0.000000 0.000000 0.000000 
-0.000263 0.945250 0.006932 -1.209509 1.778655 6.812446 3.713733 -0.299269 -3.108600 3.627134 -0.058222 -4.874304 0.999588 6.275438 11.404337 0.000000 0.000000 0.000000 -4.383807 0.521431 -5.829031 -1.484798 0.080489 -1.484763 -2.099706 -9.235676 14.433325 0.000000 0.000000 0.000000 1.487667 0.220923 -5.119907 -0.349542 0.251205 -3.113405 0.858683 -1.143221 0.127293 0.834374 -0.068745 -6.987899 0.000000 0.000000 0.000000 -19.220207 0.001631 -1.899315 -52.134691 -6.639253 -2.915147 -14.849122 -15.949028 2.632944 0.000000 0.000000 0.000000 17.726274 2.554421 -0.550850 54.603498 6.337001 -1.927104 11.555865 18.100199 2.154941 0.000000 0.000000 0.000000 
-0.000310 0.944953 0.007063 -1.166432 1.721998 6.818164 3.765565 -0.292799 -2.996225 3.448123 -0.036564 -5.045884 1.025538 6.300676 11.371311 0.000000 0.000000 0.000000 -4.516011 0.517530 -5.791696 -1.340223 0.062985 -1.560142 -2.086114 -9.198666 14.334927 0.000000 0.000000 0.000000 1.418937 0.222804 -5.169891 -0.464023 0.297218 -2.980099 0.891759 -1.184861 0.139180 0.655019 0.062432 -7.132563 0.000000 0.000000 0.000000 -19.232146 -0.169498 -1.787923 -52.020887 -6.761409 -2.862213 -15.016778 -15.995471 2.667245 0.000000 0.000000 0.000000 17.808731 2.825312 -0.435314 54.538506 6.400125 -1.893985 11.800243 17.816866 2.147552 0.000000 0.000000 0.000000 
-0.000309 0.944628 0.007267 -1.107583 1.636157 6.906071 3.902223 -0.293902 -2.994288 3.078274 -0.007515 -5.162101 1.071249 6.349989 11.324191 0.000000 0.000000 0.000000 -4.723485 0.510310 -5.691018 -1.105182 0.023707 -1.909727 -2.046335 -9.128656 14.292215 0.000000 0.000000 0.000000 1.339752 0.232040 -5.375121 -0.531306 0.322844 -2.858771 0.926823 -1.173852 0.246768 0.507261 0.199974 -7.646059 0.000000 0.000000 0.000000 -19.110270 -0.252380 -1.716398 -51.924033 -6.958193 -2.784924 -15.374664 -15.863154 2.696490 0.000000 0.000000 0.000000 17.758565 2.850002 -0.425812 54.399743 6.362882 -1.914948 12.305997 17.636545 2.190857 0.000000 0.000000 0.000000 
-0.000331 0.944343 0.007383 -1.060245 1.403928 6.962237 3.941171 -0.299286 -3.100793 2.877962 -0.006708 -4.983419 1.210990 6.523593 11.225483 0.000000 0.000000 0.000000 -4.824432 0.515849 -5.761779 -1.058054 0.016860 -1.952314 -1.955795 -8.974548 14.175667 0.000000 0.000000 0.000000 1.290721 0.236895 -5.467138 -0.632815 0.364572 -2.809587 1.071771 -1.182092 0.398225 0.364637 0.306966 -7.915534 0.000000 0.000000 0.000000 -19.186875 -0.206820 -1.701990 -51.763512 -6.938960 -2.807331 -15.332824 -15.639143 2.657405 0.000000 0.000000 0.000000 17.803656 3.133001 -0.317698 54.214437 6.354910 -1.919682 12.468601 17.619780 2.206188 0.000000 0.000000 0.000000 
-0.000336 0.944248 0.007258 -1.086798 0.873416 6.994702 3.929110 -0.303078 -3.224563 2.851414 -0.026205 -4.656378 1.501661 6.930837 11.178750 0.000000 0.000000 0.000000 -5.008218 0.534447 -6.035966 -0.766957 0.000691 -1.725621 -1.721758 -8.600069 14.042446 0.000000 0.000000 0.000000 1.357152 0.249898 -5.644243 -0.820656 0.442581 -2.766789 1.180276 -0.998689 0.728145 0.055820 0.530085 -8.237577 0.000000 0.000000 0.000000 -19.128623 -0.316012 -1.595564 -51.522166 -7.081738 -2.771171 -15.370451 -15.268180 2.602652 0.000000 0.000000 0.000000 17.810292 3.482383 -0.156387 53.914028 6.633874 -1.811235 12.668862 17.543545 2.220812 0.000000 0.000000 0.000000 
-0.000350 0.944394 0.006927 -1.084706 0.554862 7.019762 4.024942 -0.310907 -3.393423 2.616889 -0.030371 -4.335589 1.667622 7.170562 11.185433 0.000000 0.000000 0.000000 -5.164499 0.550210 -6.298191 -0.543300 -0.007870 -1.457636 -1.580244 -8.381051 14.001163 0.000000 0.000000 0.000000 1.445352 0.248138 -5.547216 -0.986792 0.516761 -2.950880 1.282894 -0.873052 1.202089 -0.055645 0.629060 -8.686178 0.000000 0.000000 0.000000 -18.972895 -0.492311 -1.454900 -51.387624 -7.321843 -2.708972 -15.130943 -15.138714 2.551878 0.000000 0.000000 0.000000 17.700118 3.708285 -0.030505 53.789912 7.034130 -1.673489 12.621017 17.338338 2.186642 0.000000 0.000000 0.000000 
-0.000372 0.944583 0.006499 -1.098846 0.366647 7.048919 4.012730 -0.315718 -3.498776 2.631626 -0.040244 -4.192223 1.759019 7.315675 11.242436 0.000000 0.000000 0.000000 -5.189990 0.563995 -6.517171 -0.498381 -0.002729 -1.242371 -1.494095 -8.256323 14.010014 0.000000 0.000000 0.000000 1.470256 0.251537 -5.584634 -1.113622 0.570661 -2.932694 1.373201 -0.836008 1.739410 -0.272406 0.795290 -9.123276 0.000000 0.000000 0.000000 -18.853615 -0.605849 -1.345075 -51.310173 -7.688653 -2.605381 -15.084240 -15.300149 2.580070 0.000000 0.000000 0.000000 17.699501 4.095643 0.169594 53.486133 7.563333 -1.481601 12.596825 17.678275 2.234593 0.000000 0.000000 0.000000 
